<svg xmlns="http://www.w3.org/2000/svg" viewBox="0 0 68.08 63.59"><defs><style>.cls-1{fill:#0c74da;}</style></defs><g id="Camada_2" data-name="Camada 2"><g id="Camada_1-2" data-name="Camada 1"><path class="cls-1" d="M34,63.59c-4-4-7.5-7.51-11-11.1A4.12,4.12,0,0,0,19.62,51c-3.65.16-7.32,0-11,.06C4.37,51.06,0,46.66,0,42.44c0-11.31,0-22.63,0-33.95A8.39,8.39,0,0,1,2.37,2.58,9.42,9.42,0,0,1,8.71,0c16.8.08,33.61,0,50.42.06A9.08,9.08,0,0,1,68,8.83c0,10.82.11,21.64,0,32.45,0,4-1.57,7.3-5.65,9.12a7.78,7.78,0,0,1-3.23.62c-3.33.06-6.67.13-10,0a5.1,5.1,0,0,0-4.32,1.72C41.39,56.31,37.83,59.75,34,63.59ZM34.2,13c-5.64,0-11.29,0-16.94,0A4.12,4.12,0,0,0,13,16.76,4,4,0,0,0,17.2,21q16.68,0,33.37,0c2.68,0,4.46-1.63,4.47-4s-1.78-4-4.4-4C45.16,13,39.68,13,34.2,13ZM23.3,38c2.15,0,4.3,0,6.46,0A4.33,4.33,0,0,0,34,33.42C34,31.86,31.91,30.07,30,30.06c-4.3,0-8.61,0-12.91,0a4.08,4.08,0,0,0-4,3.87A4,4,0,0,0,16.85,38C19,38.11,21.15,38,23.3,38Z" transform="translate(0 0)"/></g></g></svg>